<svg xmlns="http://www.w3.org/2000/svg" xmlns:xlink="http://www.w3.org/1999/xlink" width="500" zoomAndPan="magnify" viewBox="0 0 375 74.999997" height="100" preserveAspectRatio="xMidYMid meet" version="1.0"><defs><g/></defs><path fill="#ffffff" d="M 15.394531 11.039062 L 28.664062 11.039062 L 28.664062 50.734375 L 15.394531 50.734375 Z M 33.097656 11.039062 L 46.273438 11.039062 L 46.273438 63.960938 L 33.097656 63.960938 Z M 33.097656 11.039062 " fill-opacity="1" fill-rule="evenodd"/><g fill="#ffffff" fill-opacity="1"><g transform="translate(61.170223, 43.886479)"><g><path d="M 19.9375 9.03125 L 19.9375 -18.890625 L 16.6875 -18.890625 L 16.6875 -16.078125 C 14.640625 -19.25 11.390625 -19.5 10.234375 -19.5 C 6.25 -19.5 1.609375 -16.84375 1.609375 -9.109375 C 1.609375 -2.484375 5.453125 0.609375 10.1875 0.609375 C 12.59375 0.609375 14.953125 -0.125 16.6875 -2.25 L 16.6875 9.03125 Z M 16.921875 -8.78125 C 16.921875 -2.25 12.078125 -2 10.984375 -2 C 7.9375 -2 5.09375 -3.890625 5.09375 -9.1875 C 5.09375 -13 6.34375 -16.484375 10.984375 -16.484375 C 15.96875 -16.484375 16.921875 -11.515625 16.921875 -8.78125 Z M 16.921875 -8.78125 "/></g></g></g><g fill="#ffffff" fill-opacity="1"><g transform="translate(83.711381, 43.886479)"><g><path d="M 18.203125 0 L 18.203125 -18.890625 L 15.078125 -18.890625 L 15.078125 -9.21875 C 15.078125 -7.65625 15.078125 -6.0625 14.15625 -4.6875 C 12.796875 -2.6875 10.390625 -2.53125 9.671875 -2.53125 C 7.625 -2.53125 6.625 -3.53125 6.21875 -4.328125 C 5.78125 -5.25 5.78125 -6.140625 5.78125 -8.140625 L 5.78125 -18.890625 L 2.609375 -18.890625 L 2.609375 -6.734375 C 2.609375 -5.140625 2.6875 -3.484375 3.5625 -2 C 5.015625 0.359375 7.9375 0.484375 8.625 0.484375 C 11.109375 0.484375 13.640625 -0.796875 15.046875 -2.890625 L 15.046875 0 Z M 18.203125 0 "/></g></g></g><g fill="#ffffff" fill-opacity="1"><g transform="translate(104.608066, 43.886479)"><g><path d="M 2.609375 -28.3125 L 2.609375 0 L 5.8125 0 L 5.8125 -2.453125 C 6.703125 -1.28125 8.625 0.609375 12.28125 0.609375 C 18.125 0.609375 21.015625 -3.890625 21.015625 -9.46875 C 21.015625 -15.796875 17.203125 -19.5 12.3125 -19.5 C 9.78125 -19.5 7.296875 -18.484375 5.8125 -16.28125 L 5.8125 -28.3125 Z M 5.734375 -9.390625 C 5.734375 -14.953125 9.1875 -16.5625 11.75 -16.5625 C 14.875 -16.5625 17.609375 -14.234375 17.609375 -9.75 C 17.609375 -3.6875 14.234375 -2.125 11.75 -2.125 C 7.171875 -2.125 5.734375 -6.140625 5.734375 -9.390625 Z M 5.734375 -9.390625 "/></g></g></g><g fill="#ffffff" fill-opacity="1"><g transform="translate(127.149223, 43.886479)"><g><path d="M 5.859375 -24.625 L 5.859375 -28.3125 L 2.765625 -28.3125 L 2.765625 -24.625 Z M 5.859375 0 L 5.859375 -18.890625 L 2.765625 -18.890625 L 2.765625 0 Z M 5.859375 0 "/></g></g></g><g fill="#ffffff" fill-opacity="1"><g transform="translate(135.491847, 43.886479)"><g><path d="M 16.359375 -7.140625 C 16 -4.171875 14.59375 -1.890625 10.984375 -1.890625 C 7.09375 -1.890625 5.09375 -5.015625 5.09375 -9.5 C 5.09375 -15.234375 7.90625 -17.171875 10.796875 -17.171875 C 13.59375 -17.171875 15.4375 -15.609375 15.921875 -12.828125 L 19.453125 -13.15625 C 18.96875 -15.890625 16.4375 -19.5 10.75 -19.5 C 4.65625 -19.5 1.5625 -14.953125 1.5625 -9.3125 C 1.5625 -3.53125 4.96875 0.609375 10.90625 0.609375 C 15.234375 0.609375 18.765625 -1.328125 19.8125 -6.8125 Z M 16.359375 -7.140625 "/></g></g></g><g fill="#61f0fe" fill-opacity="1"><g transform="translate(171.053388, 44.359294)"><g><path d="M 27.234375 0 L 27.234375 -29.546875 L 23.265625 -29.546875 L 23.265625 -16.984375 L 7.203125 -16.984375 L 7.203125 -29.546875 L 3.3125 -29.546875 L 3.3125 0 L 7.203125 0 L 7.203125 -13.515625 L 23.265625 -13.515625 L 23.265625 0 Z M 27.234375 0 "/></g></g></g><g fill="#61f0fe" fill-opacity="1"><g transform="translate(201.560325, 44.359294)"><g><path d="M 31.21875 0 L 31.21875 -29.546875 L 26.109375 -29.546875 L 16.984375 -5.3125 L 7.953125 -29.546875 L 2.84375 -29.546875 L 2.84375 0 L 6.6875 0 C 6.6875 -0.875 6.28125 -24.390625 6.28125 -24.390625 L 15.4375 0 L 18.5 0 L 27.828125 -24.765625 C 27.828125 -24.765625 27.28125 -0.796875 27.28125 0 Z M 31.21875 0 "/></g></g></g><g fill="#61f0fe" fill-opacity="1"><g transform="translate(235.540612, 44.359294)"><g/></g></g><g fill="#61f0fe" fill-opacity="1"><g transform="translate(246.881328, 44.359294)"><g><path d="M 21.765625 0 L 21.765625 -3.21875 L 8.25 -3.21875 C 10.375 -4.609375 12.515625 -6.15625 14.484375 -7.734375 C 18.578125 -11.125 21.421875 -15.3125 21.421875 -19.546875 C 21.421875 -22.140625 20.375 -24.734375 18.40625 -26.359375 C 16.109375 -28.328125 13.34375 -28.453125 12.34375 -28.453125 C 9 -28.453125 6.859375 -27.15625 5.859375 -26.28125 C 3.3125 -24.015625 3.21875 -20.671875 3.21875 -19.625 C 3.21875 -18 3.515625 -16.984375 3.71875 -16.28125 L 7.40625 -16.28125 C 6.984375 -17.953125 6.90625 -18.75 6.90625 -19.625 C 6.90625 -22.59375 8.203125 -25.1875 12.21875 -25.1875 C 15.5625 -25.1875 17.53125 -23.09375 17.53125 -19.796875 C 17.53125 -15.6875 14.8125 -12.671875 12.046875 -10.125 C 7.234375 -5.609375 4.640625 -4.265625 3.3125 -3.5625 L 3.3125 0 Z M 21.765625 0 "/></g></g></g><g fill="#61f0fe" fill-opacity="1"><g transform="translate(271.278505, 44.359294)"><g><path d="M 2.046875 -13.96875 C 2.046875 -2.96875 7.859375 0.25 12.171875 0.25 C 18.828125 0.25 22.390625 -5.8125 22.390625 -14.234375 C 22.390625 -23.1875 17.875 -28.453125 12.140625 -28.453125 C 5.78125 -28.453125 2.046875 -22.296875 2.046875 -13.96875 Z M 5.78125 -13.8125 C 5.78125 -19.125 6.90625 -25.140625 12.265625 -25.140625 C 18.25 -25.140625 18.625 -16.609375 18.625 -14.140625 C 18.625 -10.203125 17.703125 -3.015625 12.265625 -3.015625 C 7.953125 -3.015625 5.78125 -7.53125 5.78125 -13.8125 Z M 5.78125 -13.8125 "/></g></g></g><g fill="#61f0fe" fill-opacity="1"><g transform="translate(295.675682, 44.359294)"><g><path d="M 21.765625 0 L 21.765625 -3.21875 L 8.25 -3.21875 C 10.375 -4.609375 12.515625 -6.15625 14.484375 -7.734375 C 18.578125 -11.125 21.421875 -15.3125 21.421875 -19.546875 C 21.421875 -22.140625 20.375 -24.734375 18.40625 -26.359375 C 16.109375 -28.328125 13.34375 -28.453125 12.34375 -28.453125 C 9 -28.453125 6.859375 -27.15625 5.859375 -26.28125 C 3.3125 -24.015625 3.21875 -20.671875 3.21875 -19.625 C 3.21875 -18 3.515625 -16.984375 3.71875 -16.28125 L 7.40625 -16.28125 C 6.984375 -17.953125 6.90625 -18.75 6.90625 -19.625 C 6.90625 -22.59375 8.203125 -25.1875 12.21875 -25.1875 C 15.5625 -25.1875 17.53125 -23.09375 17.53125 -19.796875 C 17.53125 -15.6875 14.8125 -12.671875 12.046875 -10.125 C 7.234375 -5.609375 4.640625 -4.265625 3.3125 -3.5625 L 3.3125 0 Z M 21.765625 0 "/></g></g></g><g fill="#61f0fe" fill-opacity="1"><g transform="translate(320.072859, 44.359294)"><g><path d="M 3.015625 -12.84375 L 6.40625 -12.84375 C 7.53125 -15.265625 9.546875 -16.484375 11.96875 -16.484375 C 16.109375 -16.484375 18.078125 -13.59375 18.078125 -10 C 18.078125 -3.9375 13.71875 -2.96875 11.890625 -2.96875 C 7.65625 -2.96875 6.0625 -6.234375 5.6875 -9.03125 L 1.96875 -8.78125 C 2.09375 -7.453125 2.265625 -6.734375 2.46875 -6.109375 C 3.265625 -3.84375 5.734375 0.25 12.015625 0.25 C 18.625 0.25 21.96875 -4.765625 21.96875 -9.875 C 21.96875 -14.734375 18.828125 -19.75 12.640625 -19.75 C 9.421875 -19.75 7.40625 -18.375 6.40625 -17.484375 L 6.78125 -24.890625 L 19.953125 -24.890625 L 19.953125 -28.203125 L 3.9375 -28.203125 Z M 3.015625 -12.84375 "/></g></g></g></svg>